<svg width="390" height="80" viewBox="0 0 390 80" fill="none" xmlns="http://www.w3.org/2000/svg">
<path d="M131.136 23.304V57H122.928V36.792L115.392 57H108.768L101.184 36.744V57H92.976V23.304H102.672L112.128 46.632L121.488 23.304H131.136ZM134.447 43.56C134.447 40.808 134.959 38.392 135.983 36.312C137.039 34.232 138.463 32.632 140.255 31.512C142.047 30.392 144.047 29.832 146.255 29.832C148.143 29.832 149.791 30.216 151.199 30.984C152.639 31.752 153.743 32.76 154.511 34.008V30.216H162.719V57H154.511V53.208C153.711 54.456 152.591 55.464 151.151 56.232C149.743 57 148.095 57.384 146.207 57.384C144.031 57.384 142.047 56.824 140.255 55.704C138.463 54.552 137.039 52.936 135.983 50.856C134.959 48.744 134.447 46.312 134.447 43.56ZM154.511 43.608C154.511 41.56 153.935 39.944 152.783 38.76C151.663 37.576 150.287 36.984 148.655 36.984C147.023 36.984 145.631 37.576 144.479 38.76C143.359 39.912 142.799 41.512 142.799 43.56C142.799 45.608 143.359 47.24 144.479 48.456C145.631 49.64 147.023 50.232 148.655 50.232C150.287 50.232 151.663 49.64 152.783 48.456C153.935 47.272 154.511 45.656 154.511 43.608ZM171.825 27.432C170.385 27.432 169.201 27.016 168.273 26.184C167.377 25.32 166.929 24.264 166.929 23.016C166.929 21.736 167.377 20.68 168.273 19.848C169.201 18.984 170.385 18.552 171.825 18.552C173.233 18.552 174.385 18.984 175.281 19.848C176.209 20.68 176.673 21.736 176.673 23.016C176.673 24.264 176.209 25.32 175.281 26.184C174.385 27.016 173.233 27.432 171.825 27.432ZM175.905 30.216V57H167.697V30.216H175.905ZM189.101 21.48V57H180.893V21.48H189.101ZM219.337 43.176C219.337 43.944 219.289 44.744 219.193 45.576H200.617C200.745 47.24 201.273 48.52 202.201 49.416C203.161 50.28 204.329 50.712 205.705 50.712C207.753 50.712 209.177 49.848 209.977 48.12H218.713C218.265 49.88 217.449 51.464 216.265 52.872C215.113 54.28 213.657 55.384 211.897 56.184C210.137 56.984 208.169 57.384 205.993 57.384C203.369 57.384 201.033 56.824 198.985 55.704C196.937 54.584 195.337 52.984 194.185 50.904C193.033 48.824 192.457 46.392 192.457 43.608C192.457 40.824 193.017 38.392 194.137 36.312C195.289 34.232 196.889 32.632 198.937 31.512C200.985 30.392 203.337 29.832 205.993 29.832C208.585 29.832 210.889 30.376 212.905 31.464C214.921 32.552 216.489 34.104 217.609 36.12C218.761 38.136 219.337 40.488 219.337 43.176ZM210.937 41.016C210.937 39.608 210.457 38.488 209.497 37.656C208.537 36.824 207.337 36.408 205.897 36.408C204.521 36.408 203.353 36.808 202.393 37.608C201.465 38.408 200.889 39.544 200.665 41.016H210.937Z" fill="#7B6EF6"/>
<path d="M251.891 23.304V57H243.683V43.128H230.915V57H222.707V23.304H230.915V36.504H243.683V23.304H251.891ZM282.105 43.176C282.105 43.944 282.057 44.744 281.961 45.576H263.385C263.513 47.24 264.041 48.52 264.969 49.416C265.929 50.28 267.097 50.712 268.473 50.712C270.521 50.712 271.945 49.848 272.745 48.12H281.481C281.033 49.88 280.217 51.464 279.033 52.872C277.881 54.28 276.425 55.384 274.665 56.184C272.905 56.984 270.937 57.384 268.761 57.384C266.137 57.384 263.801 56.824 261.753 55.704C259.705 54.584 258.105 52.984 256.953 50.904C255.801 48.824 255.225 46.392 255.225 43.608C255.225 40.824 255.785 38.392 256.905 36.312C258.057 34.232 259.657 32.632 261.705 31.512C263.753 30.392 266.105 29.832 268.761 29.832C271.353 29.832 273.657 30.376 275.673 31.464C277.689 32.552 279.257 34.104 280.377 36.12C281.529 38.136 282.105 40.488 282.105 43.176ZM273.705 41.016C273.705 39.608 273.225 38.488 272.265 37.656C271.305 36.824 270.105 36.408 268.665 36.408C267.289 36.408 266.121 36.808 265.161 37.608C264.233 38.408 263.657 39.544 263.433 41.016H273.705ZM293.683 34.68C294.643 33.208 295.843 32.056 297.283 31.224C298.723 30.36 300.323 29.928 302.083 29.928V38.616H299.827C297.779 38.616 296.243 39.064 295.219 39.96C294.195 40.824 293.683 42.36 293.683 44.568V57H285.475V30.216H293.683V34.68ZM330.294 43.176C330.294 43.944 330.246 44.744 330.15 45.576H311.574C311.702 47.24 312.23 48.52 313.158 49.416C314.118 50.28 315.286 50.712 316.662 50.712C318.71 50.712 320.134 49.848 320.934 48.12H329.67C329.222 49.88 328.406 51.464 327.222 52.872C326.07 54.28 324.614 55.384 322.854 56.184C321.094 56.984 319.126 57.384 316.95 57.384C314.326 57.384 311.99 56.824 309.942 55.704C307.894 54.584 306.294 52.984 305.142 50.904C303.99 48.824 303.414 46.392 303.414 43.608C303.414 40.824 303.974 38.392 305.094 36.312C306.246 34.232 307.846 32.632 309.894 31.512C311.942 30.392 314.294 29.832 316.95 29.832C319.542 29.832 321.846 30.376 323.862 31.464C325.878 32.552 327.446 34.104 328.566 36.12C329.718 38.136 330.294 40.488 330.294 43.176ZM321.894 41.016C321.894 39.608 321.414 38.488 320.454 37.656C319.494 36.824 318.294 36.408 316.854 36.408C315.478 36.408 314.31 36.808 313.35 37.608C312.422 38.408 311.846 39.544 311.622 41.016H321.894ZM350.032 57L341.872 45.768V57H333.664V21.48H341.872V41.112L349.984 30.216H360.112L348.976 43.656L360.208 57H350.032ZM374.568 57.384C371.944 57.384 369.576 56.824 367.464 55.704C365.384 54.584 363.736 52.984 362.52 50.904C361.336 48.824 360.744 46.392 360.744 43.608C360.744 40.856 361.352 38.44 362.568 36.36C363.784 34.248 365.448 32.632 367.56 31.512C369.672 30.392 372.04 29.832 374.664 29.832C377.288 29.832 379.656 30.392 381.768 31.512C383.88 32.632 385.544 34.248 386.76 36.36C387.976 38.44 388.584 40.856 388.584 43.608C388.584 46.36 387.96 48.792 386.712 50.904C385.496 52.984 383.816 54.584 381.672 55.704C379.56 56.824 377.192 57.384 374.568 57.384ZM374.568 50.28C376.136 50.28 377.464 49.704 378.552 48.552C379.672 47.4 380.232 45.752 380.232 43.608C380.232 41.464 379.688 39.816 378.6 38.664C377.544 37.512 376.232 36.936 374.664 36.936C373.064 36.936 371.736 37.512 370.68 38.664C369.624 39.784 369.096 41.432 369.096 43.608C369.096 45.752 369.608 47.4 370.632 48.552C371.688 49.704 373 50.28 374.568 50.28Z" fill="#1EA5FC"/>
<path d="M18.512 31.5256L53.5601 9.536C60.1937 5.3744 68.8001 10.1592 68.8001 18.0104V61.9896C68.8001 69.84 60.1937 74.6256 53.5601 70.464L18.512 48.4744C12.2728 44.5592 12.2728 35.4408 18.512 31.5256Z" fill="#1EA5FC"/>
<path d="M61.4879 31.5256L26.44 9.536C19.8064 5.3744 11.2 10.1592 11.2 18.0104V61.9896C11.2 69.84 19.8064 74.6256 26.44 70.464L61.4879 48.4744C67.7271 44.5592 67.7271 35.4408 61.4879 31.5256Z" fill="#7B6EF6"/>
</svg>
