<?xml version="1.0" standalone="no"?>
<!DOCTYPE svg PUBLIC "-//W3C//DTD SVG 20010904//EN"
 "http://www.w3.org/TR/2001/REC-SVG-20010904/DTD/svg10.dtd">
<svg version="1.0" xmlns="http://www.w3.org/2000/svg"
 width="320.000000pt" height="320.000000pt" viewBox="0 0 320.000000 320.000000"
 preserveAspectRatio="xMidYMid meet">
<metadata>
Created by potrace 1.14, written by Peter Selinger 2001-2017
</metadata>
<g transform="translate(0.000000,320.000000) scale(0.100000,-0.100000)"
fill="#000000" stroke="none">
<path d="M727 2860 c-140 -49 -237 -154 -268 -287 -7 -33 -11 -330 -10 -978 0
-511 2 -937 4 -945 23 -95 49 -144 110 -208 126 -132 328 -158 489 -63 73 44
89 53 123 76 16 11 37 25 47 30 10 6 99 61 198 123 l181 114 135 -86 c75 -47
140 -86 145 -86 5 0 9 -4 9 -8 0 -5 19 -18 43 -31 23 -12 87 -51 142 -86 55
-36 120 -72 145 -80 219 -77 460 51 520 275 17 62 17 1882 1 1953 -31 135
-141 250 -276 290 -116 34 -233 13 -350 -62 -22 -14 -48 -30 -58 -36 -10 -5
-88 -55 -175 -109 -86 -55 -185 -117 -220 -138 l-63 -39 -87 54 c-48 30 -175
110 -282 177 -107 68 -217 132 -244 142 -77 30 -188 33 -259 8z"/>
</g>
</svg>
